<?xml version="1.0" encoding="utf-8"?>
<!-- Generator: Adobe Illustrator 24.0.1, SVG Export Plug-In . SVG Version: 6.00 Build 0)  -->
<svg version="1.1" id="Capa_1" focusable="false" xmlns="http://www.w3.org/2000/svg" xmlns:xlink="http://www.w3.org/1999/xlink"
	 x="0px" y="0px" viewBox="0 0 488 512" style="enable-background:new 0 0 488 512;" xml:space="preserve">
<style type="text/css">
	.st0{fill:#EA4335;}
	.st1{fill:#35A853;}
	.st2{fill:#FBBB05;}
	.st3{fill:#4385F3;}
</style>
<g>
	<path class="st0" d="M346.8,137.8l67.5-64.9C371,32.5,314.8,8,248,8C152.1,8,69.1,62.1,27.8,141.6l75.6,60
		C139.2,101.5,271,64.7,346.8,137.8z"/>
	<path class="st1" d="M248,412.6c-49.7,0-94-24.2-122.1-61.6l-67.4,65.1C103.9,469.9,171.9,504,248,504
		c65.9,0,121.9-21.4,163.3-58.2l-74.6-59.2C315.3,401.9,286.3,412.6,248,412.6z"/>
	<path class="st2" d="M94.3,256c0-19.7,3.3-37.9,9.2-54.4l-75.6-60C10.1,175.8,0,214.7,0,256c0,61.1,22,116.9,58.4,160.1l67.4-65.1
		C106.1,324.6,94.3,291.7,94.3,256z"/>
	<path class="st3" d="M488,261.8c0-16.5-1.6-28.7-3.9-41.4H248v85.3h140.8c-3.5,22.3-18.6,57.1-52.1,80.9l74.6,59.2
		C459.8,402.6,488,338.2,488,261.8z"/>
</g>
</svg>
